<?xml version="1.0" encoding="utf-8"?>
<!-- Generator: Adobe Illustrator 24.0.1, SVG Export Plug-In . SVG Version: 6.00 Build 0)  -->
<svg version="1.1" id="Layer_1" xmlns="http://www.w3.org/2000/svg" xmlns:xlink="http://www.w3.org/1999/xlink" x="0px" y="0px"
	 viewBox="0 0 148.9 31.1" style="enable-background:new 0 0 148.9 31.1;" xml:space="preserve">
<style type="text/css">
	.st0{fill-rule:evenodd;clip-rule:evenodd;fill:#70A116;}
	.st1{fill-rule:evenodd;clip-rule:evenodd;fill:#F3A400;}
	.st2{fill-rule:evenodd;clip-rule:evenodd;fill:#E85200;}
</style>
<g id="Group_835" transform="translate(-3877.498 -3137.102)">
	<g id="Group_835-2" transform="translate(3105.578 2939.387)">
		<g id="Group_833" transform="translate(771.92 184.454)">
			<g id="Group_824" transform="translate(61.387 22.095)">
				<path id="Path_11666" class="st0" d="M3.7,13.5c-0.7,0.2-1.4,0.2-2-0.2c-0.6-0.3-1-0.8-1.4-0.9c-0.3-0.1-0.5-0.5-0.4-0.8
					c0-0.1,0.1-0.1,0.1-0.2c0.4-0.6,0.8-1.2,1.1-1.8c0.4-0.7,1.1-1.2,1.9-1.4C3.6,8.3,3.6,8,3.6,8c-0.2-0.4-0.2-0.9,0-1.3
					c0.3-0.3,0.5-0.6,0.6-1C4.5,6,4.8,6.4,4.8,6.9C4.8,7.3,4.9,7.6,5,8c0,0,0.4,0.5,0.2-0.1s0.5-1.8,0.5-1.8s1.4,1.6,1.1,2.3
					S6.5,9,6.5,9c0.3,0.6,0.8,1.1,1.3,1.4c1.3,0.4,2.7,0.4,4-0.2c2-1,4.4-0.9,6.3,0.2c1.2,0.8,2.2,1.9,3,3.1c0,0,0.6,0.2,0.4-0.8
					s-2.4-4.3-2-7.9c0.2-2.3,1.9-4.2,4.2-4.7c1.1-0.2,5.3-0.2,4.7,3.1c-0.5,2.5-3.7,0.8-2.3,4.1c2,4.8,2,6.1,1.7,9
					c-0.1,2.7-2.4,4.7-5.1,4.6c-0.3,0-0.6-0.1-0.8-0.1c-1.8-0.5-3-1.7-3-1.2s-0.5,2.5-1.2,2.1c-1.8-1-3.2-1.8-4.3-1.8
					s-2.5-0.7-1-1.1c0.9-0.2,1.8-0.1,2.7,0.2c0,0,0.2-0.5-0.5-0.9S13,18,11.8,17.5s-1.9-1.1-2-0.5S9.2,20,8.5,20.6
					c-0.5,0.6-1.3,0.8-2,0.7c-1.1,0-0.7-0.9-0.3-1.2S5.4,20.6,5,20.4s-0.3-1,0.7-1.2c0.7-0.4,1.2-1.1,1.2-1.9
					c0.2-0.9-0.3-1.9-1.2-2.2C4.9,14.9,4.2,14.3,3.7,13.5z"/>
			</g>
			<g id="Group_828" transform="translate(0 25.221)">
				<path id="Path_11677" class="st1" d="M1.8,1.7c0.1-0.4,0.4-0.8,0.8-1.1c1.2-0.7,2.6-0.8,3.9-0.3C8,1.1,8.6,3.6,8.6,3.6
					c1.9,0.7,3.7,1.7,5.4,2.8c1.9,1.5,3.7,3.1,5.3,4.9c0.6,0.4,1.2,0.7,1.9,0.8l-0.6,0.5l9.1-0.5l-0.9,0.5c0,0,2.9,0.3,0.8,0.6
					C29,13.4,18.8,14.8,17,14.6l-1.8-0.1l-1,0.6l-1.2-0.2c0,0,0.4,0.8-0.1,1.1s-2.1,1.3-2.1,1.3s-1.2,0.6-0.5,0.6s0.7-0.2,0.9-0.2
					s0,0.2,0.1,0.2c1.1-0.1,1.1,0.9,1.1,0.9c-0.2-0.3-0.4-0.5-0.7-0.6c-0.4-0.1-0.1,0.3-0.4,0.4c-0.4,0-0.2-0.3-0.5-0.2
					c-0.4,0.1-0.8,0.1-1.2-0.1c-0.3-0.2-0.2,0.3-0.9,0.2s-0.8-0.2-1-0.1c-0.1,0.1-0.3,0.1-0.4,0c-0.2,0-0.4,0.1-0.5,0.2
					c-0.1,0.1-0.2,0.2-0.3,0.4c0.1-0.3,0.2-0.6,0.4-0.8C7.1,18.1,7.4,18,7.6,18c0,0,0.2-0.3,0.3-0.3s0.2,0.1,0.5,0.2
					c0.3,0,0.5,0,0.8-0.2c0.2-0.1,0.1-0.3,0.7-0.6c0.7-0.4,1.3-0.9,1.9-1.5c0,0,0.3-0.3,0-0.5s-7.7-3-8.6-7.4C3.1,7.1,3,6.3,3.2,5.5
					C2.9,5.1,2.7,4.7,2.5,4.3C2.3,3.8,2,3.2,2,3.2C1.7,3.2,1.3,3.1,1,3C0.7,2.9,0.3,2.7,0,2.5c0,0,0.5-0.3,0.9-0.5
					C1.1,1.9,1.4,1.8,1.8,1.7z"/>
			</g>
		</g>
	</g>
	<g id="Group_837" transform="translate(4002.275 3137.102)">
		<path id="Path_11687" class="st2" d="M18.7,16c-2.4-3.6-8.6-3.1-9.4-3.3s-0.8-1.5-1.5-2s0.1-1,1.7-3s2.9-5.9,1.4-6.5
			s-4,5.2-4.3,6.2S5.9,7.9,5.9,7.9s0.8-8-0.7-7.9s-1,8.1-1.5,8.8c-0.6,0.7-1.3,1.3-2,1.7c-0.6,0.5-0.2,1.7-0.6,2.1
			c-0.3,0.4-0.6,0.8-0.8,1.3c-0.2,0.4-0.6,0.6-0.2,1.2c0.3,0.4,0.7,0.6,1.2,0.7c0.4,0.3,0.9,0.4,1.4,0.4c0.7,0,1.5-0.1,2.2-0.3
			c-0.1,0.8-0.2,1.6-0.3,2.4c-0.1,1.4,1.2,2.9,1.5,3.9s-0.3,3-1.4,4.8c-0.6,0.9-1.3,1.8-2.2,2.4c0,0-0.5,0.1-1.3,0.2S1.1,31,1.1,31
			C2.1,31.1,3,31.1,4,31.1c1.1-0.1,1.1-0.5,1.1-0.5c0.4,0,0.8,0,1.2-0.1C6.8,30.3,7.2,29,7.8,28s2.9-4,2.9-4s0.3,1.6,3.3,3.4
			c0.7,0.4,0,1.3-0.8,1.3c-1.4-0.2-2.8-0.1-4.2,0.3c-1.8,0.6-0.8,1.9-0.8,1.9s8,0.1,9.6,0s1.2-1.3,1.2-1.3s1.2,1.3,3.8-0.7
			s0.8-5.2,0.5-5.4s-1.5,1.3-1.5,1.3C20.6,24.9,22.4,21.6,18.7,16z"/>
	</g>
</g>
</svg>
