<?xml version="1.0" encoding="utf-8"?>
<!-- Generator: Adobe Illustrator 16.0.0, SVG Export Plug-In . SVG Version: 6.00 Build 0)  -->
<!DOCTYPE svg PUBLIC "-//W3C//DTD SVG 1.1//EN" "http://www.w3.org/Graphics/SVG/1.1/DTD/svg11.dtd">
<svg version="1.1" id="hedgeforce_svg" xmlns="http://www.w3.org/2000/svg" xmlns:xlink="http://www.w3.org/1999/xlink" x="0px"
	 y="0px" width="151.139px" height="30.58px" viewBox="0 0 151.139 30.58" enable-background="new 0 0 151.139 30.58"
	 xml:space="preserve">
<g id="Group_775" transform="translate(0 0.963)">
	<path id="Path_11610" d="M16.232,16.29h-3.949l-0.9,6.243h-2.9l0.9-6.243H6.505l-0.872,6.243H2.701l0.812-6.243H0v-2.9h3.92
		l0.377-2.7H0.669v-2.9h4.006l0.812-5.749h2.99L7.665,7.79h2.85l0.871-5.749h2.846L13.448,7.79h3.426v2.9H13.04l-0.377,2.7h3.571
		L16.232,16.29z M9.757,13.39l0.407-2.7H7.29l-0.378,2.7H9.757z"/>
	<path id="Path_11611" d="M26.073,12.776c-0.03-0.9-0.06-2.5-1.686-2.5c-0.585,0.029-1.141,0.266-1.567,0.668v10.918
		c0,0.551-0.199,0.668-0.638,0.668h-3.34c-0.61,0-0.7-0.2-0.7-0.7V0.9c0-0.464,0.2-0.58,0.638-0.58h3.341
		c0.492,0,0.699,0.058,0.699,0.58v7.636c1.091-0.938,2.482-1.453,3.921-1.451c1.192-0.059,2.343,0.447,3.106,1.364
		c0.651,0.935,0.978,2.057,0.928,3.195v10.221c0,0.435-0.086,0.668-0.667,0.668h-3.34c-0.521,0-0.7-0.058-0.7-0.64L26.073,12.776z"
		/>
	<path id="Path_11612" d="M36.552,15.304c0.075,0.542,0.231,1.07,0.464,1.566c0.607,1.238,1.872,2.017,3.251,2
		c1.118-0.017,2.184-0.477,2.962-1.277c0.58-0.639,0.755-0.812,1.162-0.812c0.464,0,0.9,0.377,0.9,1.1
		c-0.277,2.94-2.798,5.156-5.749,5.053c-5.14,0-6.882-4.066-6.882-8.045c0-5.749,3.63-7.838,6.795-7.838
		c4.646,0,5.778,4.3,5.778,5.72c0,1.248-0.727,1.365-1.19,1.451L36.552,15.304z M40.762,12.403c-0.2-2.585-1.714-2.613-2.062-2.613
		c-1.713,0-2.41,1.625-2.438,3.281L40.762,12.403z"/>
	<path id="Path_11613" d="M59.807,19.545c0.121,0.857-0.249,1.71-0.957,2.207c-1.585,0.827-3.354,1.237-5.141,1.191
		c-4.992,0-7.143-3.107-7.143-7.55c0-4.385,2.322-8.333,6.358-8.333c0.804-0.023,1.599,0.179,2.294,0.582V1.045
		c0-0.639,0.349-0.726,0.755-0.726h3.048c0.524,0.028,0.785,0.028,0.785,0.638V19.545z M55.219,9.876
		c-0.353-0.236-0.766-0.367-1.19-0.377c-1.944,0-2.815,2.555-2.815,5.284c0,2.729,0.871,5.256,2.759,5.256
		c1.22,0,1.248-1.073,1.248-1.714L55.219,9.876z"/>
	<path id="Path_11614" d="M73.423,10.075c0.366,0.751,0.564,1.574,0.58,2.41c0,3.543-3.107,5.023-5.75,5.023
		c-0.537,0-1.072-0.048-1.601-0.145c-0.261,0.305-0.432,0.677-0.493,1.074c0,0.812,0.841,0.841,2.699,0.929l2.179,0.116
		c1.45,0.087,5.429,0.349,5.429,3.949c0,2.033-1.974,6.184-9,6.184c-0.813,0-5.894,0-5.894-3.425c0-1.279,0.899-2.382,2.438-3.224
		c-1.068-0.285-1.816-1.246-1.83-2.352c0-1.453,1.424-2.818,2.7-3.775c-1.721-0.869-2.775-2.662-2.7-4.588
		c0-2.585,1.656-5.168,5.925-5.168c0.999-0.014,1.993,0.153,2.933,0.493c0.527,0.246,1.102,0.375,1.684,0.378
		c0.352-0.008,0.701-0.047,1.045-0.117c0.146-0.028,1.568-0.319,1.626-0.319c0.261,0,0.319,0.291,0.347,0.378
		c0.115,0.371,0.203,0.749,0.263,1.132c0,0.2-0.088,0.261-0.436,0.377L73.423,10.075z M65.292,24.942
		c0,0.929,0.899,1.917,3.37,1.917c1.886,0,3.628-0.755,3.628-1.917c0-1.016-1.101-1.133-1.858-1.221
		c-0.609-0.058-3.688-0.174-4.385-0.232C65.625,23.864,65.357,24.382,65.292,24.942L65.292,24.942z M67.877,9.467
		c-0.872,0-1.625,0.754-1.625,2.089c0,1.307,0.7,3.193,2.06,3.193c1.101,0,1.601-0.957,1.601-2.032c0-0.341-0.029-0.681-0.086-1.016
		C69.619,10.685,69.009,9.466,67.877,9.467L67.877,9.467z"/>
	<path id="Path_11615" d="M80.708,15.304c0.075,0.542,0.231,1.07,0.464,1.566c0.607,1.238,1.873,2.018,3.253,2
		c1.117-0.017,2.183-0.477,2.961-1.277c0.58-0.639,0.755-0.812,1.163-0.812c0.463,0,0.9,0.377,0.9,1.1
		c-0.278,2.94-2.799,5.155-5.75,5.053c-5.14,0-6.883-4.066-6.883-8.045c0-5.749,3.631-7.838,6.801-7.838
		c4.645,0,5.777,4.3,5.777,5.72c0,1.248-0.727,1.365-1.19,1.451L80.708,15.304z M84.918,12.403c-0.2-2.585-1.714-2.613-2.062-2.613
		c-1.712,0-2.409,1.625-2.438,3.281L84.918,12.403z"/>
	<path id="Path_11616" d="M96.411,9.408v12.366c0,0.464-0.059,0.755-0.61,0.755h-3.252c-0.552,0-0.726-0.146-0.726-0.668V9.408
		h-1.451c-0.407,0-0.61-0.028-0.61-0.522c0-1.22,0-1.365,0.61-1.393h1.451c-0.019-1.697,0.381-3.373,1.161-4.879
		c0.854-1.571,2.481-2.567,4.269-2.613c1.451,0,2.206,0.784,2.206,1.858c0.055,0.842-0.584,1.57-1.427,1.625
		c-0.027,0.002-0.055,0.003-0.082,0.003c-0.437,0-0.931-0.233-1.364-0.233c-0.723,0.028-1.287,0.636-1.26,1.359
		c0.002,0.041,0.005,0.082,0.011,0.123c0.062,1.003,0.426,1.965,1.045,2.758h2.031c0.378,0,0.523,0.058,0.523,0.493v1.133
		c-0.058,0.289-0.2,0.289-0.58,0.289H96.411z"/>
	<path id="Path_11617" d="M106.082,22.938c-3.919,0-6.882-2.877-6.882-7.9c0-5.343,3.224-7.956,6.939-7.956
		c4.674,0,6.794,3.891,6.912,7.664C113.196,19.652,110.32,22.938,106.082,22.938z M106.052,9.785c-1.6,0-2.061,2.671-2.061,4.82
		c0,2.236,0.58,5.256,2.178,5.256c1.597,0,2.119-2.9,2.06-5.256C108.173,11.905,107.446,9.786,106.052,9.785L106.052,9.785z"/>
	<path id="Path_11618" d="M119.669,21.891c0,0.522-0.175,0.64-0.64,0.64h-3.339c-0.521,0-0.668-0.117-0.668-0.668V9.813
		c0-0.958,0.174-1.307,0.841-1.655c1.812-0.75,3.76-1.115,5.721-1.074c0.785,0,3.833,0,3.833,2.671
		c0.089,0.949-0.608,1.791-1.558,1.879c-0.052,0.005-0.104,0.007-0.155,0.007c-1.017,0-1.308-0.668-1.626-1.395
		c-0.233-0.493-0.494-0.9-1.191-0.9c-1.189,0-1.218,0.785-1.218,1.481V21.891z"/>
	<path id="Path_11619" d="M131.862,9.959c-1.423,0-2.178,1.974-2.178,3.745c0,2.178,1.101,5.053,3.281,5.053
		c1.036-0.021,1.972-0.629,2.41-1.568c0.319-0.465,0.552-0.812,1.016-0.812c0.408,0,0.958,0.289,0.958,1.307
		c-0.026,2.931-2.424,5.285-5.354,5.258c-0.044,0-0.088-0.001-0.133-0.002c-4.385,0-6.041-4.211-6.041-7.842
		c0-2.899,1.191-8.013,6.649-8.013c3.4,0,4.85,2.264,4.85,3.861c0.063,1.09-0.77,2.025-1.86,2.088
		c-0.019,0.001-0.037,0.002-0.057,0.002c-0.773,0.003-1.462-0.488-1.712-1.22C133.371,10.976,132.936,9.959,131.862,9.959z"/>
	<path id="Path_11620" d="M142.399,15.304c0.076,0.542,0.232,1.07,0.465,1.566c0.606,1.238,1.873,2.018,3.253,2
		c1.117-0.017,2.182-0.477,2.96-1.277c0.582-0.639,0.755-0.812,1.163-0.812c0.463,0,0.899,0.377,0.899,1.1
		c-0.277,2.94-2.798,5.155-5.75,5.053c-5.139,0-6.881-4.066-6.881-8.045c0-5.749,3.629-7.838,6.794-7.838
		c4.646,0,5.778,4.3,5.778,5.72c0,1.248-0.727,1.365-1.191,1.451L142.399,15.304z M146.61,12.403
		c-0.199-2.585-1.715-2.613-2.062-2.613c-1.712,0-2.41,1.625-2.439,3.281L146.61,12.403z"/>
</g>
<path id="Path_11621" fill="#EC9700" d="M80.277,0.759c0.057-0.191,0.173-0.36,0.331-0.482c0.525-0.302,1.159-0.35,1.724-0.131
	c0.687,0.327,0.97,1.423,0.97,1.423c0.83,0.322,1.622,0.732,2.362,1.226c0.835,0.654,1.615,1.375,2.335,2.155
	c0.256,0.174,0.545,0.295,0.849,0.356l-0.278,0.238l4.011-0.235l-0.4,0.235c0,0,1.29,0.113,0.364,0.271
	c-0.3,0.054-4.785,0.659-5.563,0.6L86.2,6.357l-0.448,0.265l-0.51-0.089c0,0,0.183,0.359-0.03,0.477
	c-0.213,0.118-0.928,0.569-0.928,0.569s-0.508,0.273-0.242,0.273c0.265,0,0.291-0.068,0.412-0.068c0.12,0,0,0.082,0.062,0.078
	c0.5-0.033,0.468,0.378,0.468,0.378c-0.066-0.125-0.183-0.218-0.319-0.255c-0.189-0.019-0.027,0.151-0.165,0.154
	c-0.162,0.006-0.08-0.121-0.241-0.068c-0.179,0.051-0.371,0.035-0.539-0.044c-0.13-0.078-0.091,0.112-0.391,0.082
	c-0.301-0.03-0.341-0.082-0.439-0.046c-0.055,0.023-0.115,0.023-0.17,0c-0.084,0.006-0.163,0.042-0.223,0.1
	c-0.055,0.046-0.103,0.099-0.146,0.156c0.021-0.129,0.083-0.248,0.176-0.34c0.102-0.059,0.217-0.085,0.333-0.077
	c0,0,0.067-0.115,0.153-0.115s0.108,0.053,0.216,0.071c0.117,0.012,0.234-0.013,0.336-0.071c0.084-0.055,0.049-0.124,0.323-0.255
	c0.292-0.184,0.564-0.397,0.813-0.637c0,0,0.125-0.117,0-0.2c-0.125-0.083-3.394-1.31-3.755-3.24
	c-0.09-0.349-0.101-0.714-0.03-1.068c-0.125-0.164-0.231-0.339-0.32-0.524c-0.078-0.2-0.194-0.467-0.194-0.467
	c-0.152-0.014-0.302-0.044-0.447-0.091c-0.153-0.056-0.302-0.123-0.444-0.2c0,0,0.2-0.122,0.376-0.21
	c0.126-0.056,0.257-0.101,0.391-0.134"/>
<path id="Path_11622" fill="#5F9600" d="M37.964,5.666c-0.258,0.076-0.536,0.031-0.758-0.121c-0.2-0.144-0.356-0.342-0.49-0.385
	C36.592,5.1,36.54,4.95,36.601,4.826c0.01-0.02,0.022-0.039,0.037-0.056c0.177-0.204,0.334-0.425,0.468-0.659
	c0.173-0.259,0.449-0.43,0.759-0.468c0.212,0.017,0.188-0.084,0.188-0.084c-0.083-0.158-0.066-0.349,0.042-0.49
	c0.105-0.108,0.195-0.23,0.266-0.363c0.125,0.126,0.199,0.293,0.208,0.47c-0.01,0.141,0.002,0.282,0.035,0.419
	c0,0,0.135,0.183,0.082-0.027s0.224-0.682,0.224-0.682s0.512,0.665,0.353,0.9c-0.159,0.235-0.124,0.235-0.124,0.235
	c0.118,0.225,0.278,0.426,0.472,0.591c0.487,0.205,1.032,0.221,1.53,0.045c0.801-0.307,1.7-0.212,2.419,0.255
	c0.433,0.344,0.791,0.773,1.052,1.261c0,0,0.235,0.086,0.162-0.3c-0.423-0.972-0.605-2.031-0.53-3.088
	c0.134-0.885,0.84-1.573,1.728-1.684c0.444-0.033,2.053,0.089,1.714,1.32c-0.253,0.934-1.439,0.188-1,1.521
	c0.51,1.098,0.643,2.333,0.378,3.514c-0.133,1.024-1.072,1.747-2.097,1.614c-0.108-0.014-0.217-0.038-0.321-0.071
	c-0.679-0.261-1.094-0.742-1.109-0.537c-0.017,0.205-0.274,0.942-0.535,0.766c-0.46-0.387-1.001-0.663-1.584-0.807
	C41,8.39,40.484,8.097,41.083,7.982c0.349-0.046,0.703,0.007,1.022,0.154c0,0,0.108-0.19-0.156-0.35
	c-0.266-0.16-0.584-0.115-1.022-0.354c-0.438-0.239-0.69-0.473-0.745-0.266c-0.095,0.5-0.3,0.973-0.6,1.384
	c-0.213,0.204-0.515,0.285-0.8,0.215c-0.417-0.032-0.247-0.362-0.101-0.454c0.147-0.092-0.3,0.148-0.431,0.057
	c-0.131-0.091-0.1-0.376,0.284-0.435c0.287-0.113,0.49-0.373,0.53-0.679c0.126-0.348-0.053-0.733-0.399-0.862
	c-0.316-0.148-0.568-0.404-0.713-0.722"/>
<path id="Path_11623" fill="#E85200" d="M127.857,19.099c-0.832-1.246-2.968-1.082-3.253-1.146s-0.281-0.507-0.5-0.7
	c-0.218-0.193,0.032-0.35,0.571-1.042c0.539-0.693,0.985-2.051,0.482-2.244c-0.504-0.193-1.4,1.8-1.492,2.146
	c-0.092,0.347-0.192,0.189-0.192,0.189s0.293-2.749-0.244-2.717s-0.355,2.777-0.513,3.031c-0.203,0.232-0.438,0.435-0.7,0.6
	c-0.22,0.189-0.062,0.6-0.189,0.727c-0.117,0.132-0.213,0.281-0.284,0.442c-0.064,0.127-0.192,0.22-0.067,0.409
	c0.104,0.128,0.249,0.218,0.41,0.255c0.138,0.1,0.307,0.145,0.475,0.127c0.256-0.005,0.51-0.036,0.759-0.091
	c-0.047,0.271-0.08,0.547-0.1,0.822c-0.032,0.473,0.409,1.013,0.5,1.328c-0.003,0.971-0.463,1.881-1.24,2.461
	c0,0-0.156,0.031-0.443,0.062s-0.032,0.5-0.032,0.5c0.325,0.036,0.652,0.048,0.979,0.035c0.382-0.03,0.382-0.187,0.382-0.187
	c0.138-0.002,0.275-0.012,0.411-0.03c0.188-0.032,0.315-0.507,0.539-0.854c0.225-0.348,1.015-1.386,1.015-1.386
	s0.094,0.536,1.136,1.172c0.241,0.146,0,0.441-0.287,0.441c-0.485-0.073-0.981-0.042-1.454,0.091
	c-0.633,0.219-0.287,0.663-0.287,0.663s2.749,0.037,3.318,0.008c0.569-0.028,0.414-0.44,0.414-0.44s0.408,0.443,1.3-0.248
	c0.558-0.472,0.63-1.304,0.163-1.864c-0.126-0.063-0.506,0.44-0.506,0.44C128.545,22.161,129.148,21.024,127.857,19.099"/>
</svg>
