<?xml version="1.0" encoding="utf-8"?>
<!-- Generator: Adobe Illustrator 16.0.0, SVG Export Plug-In . SVG Version: 6.00 Build 0)  -->
<!DOCTYPE svg PUBLIC "-//W3C//DTD SVG 1.1//EN" "http://www.w3.org/Graphics/SVG/1.1/DTD/svg11.dtd">
<svg version="1.1" xmlns="http://www.w3.org/2000/svg" xmlns:xlink="http://www.w3.org/1999/xlink" x="0px" y="0px" width="139.5px"
	 height="34.459px" viewBox="-4.847 -1.113 139.5 34.459" enable-background="new -4.847 -1.113 139.5 34.459" xml:space="preserve"
	>
<g id="Component_875_2" display="none">
	<g id="Group_827" transform="translate(0 4.681)" display="inline" opacity="0.198">
		<path id="Path_11667" d="M6.558,19.86c0,0.475-0.184,0.658-0.657,0.658H2.643c-0.5,0-0.709-0.132-0.709-0.658V2.573
			c0.026-0.445,0.131-0.6,0.631-0.6h3.39c0.5-0.026,0.6,0.184,0.6,0.6L6.558,19.86z"/>
		<path id="Path_11668" d="M20.852,19.887c0,0.5-0.131,0.656-0.683,0.656h-2.917c-0.42,0-0.578-0.157-0.578-0.631v-8.984
			c0-0.84,0-1.261-0.394-1.68c-0.376-0.314-0.853-0.482-1.342-0.475c-1.681,0-1.707,1.367-1.707,2.155v9.037
			c0,0.5-0.236,0.553-0.684,0.578H9.632c-0.473,0-0.578-0.185-0.6-0.656V9.402c0-0.945,0-1.812,2.548-2.442
			c1.171-0.278,2.369-0.42,3.572-0.421c2.891,0,3.863,0.6,4.2,0.84c1.025,0.597,1.611,1.735,1.5,2.917L20.852,19.887z"/>
		<path id="Path_11669" d="M29.867,12.5c1.748,0.603,2.94,2.225,2.994,4.072c0,1.813-1.051,4.311-4.965,4.311
			c-3.81,0-5.176-2.101-5.176-3.337c-0.057-0.914,0.638-1.701,1.552-1.758c0.034-0.002,0.069-0.004,0.104-0.004
			c0.647,0.021,1.24,0.366,1.577,0.92c0.079,0.131,0.5,0.711,0.578,0.842c0.28,0.488,0.779,0.812,1.34,0.868
			c0.676-0.009,1.218-0.564,1.209-1.24c0-0.017,0-0.033-0.001-0.049c0-1.052-0.735-1.42-2.075-2.076l-1.13-0.553
			c-1.691-0.566-2.847-2.132-2.891-3.912c0-0.92,0.395-4.046,4.914-4.046c3.363,0,4.545,1.732,4.545,2.941
			c0.051,0.819-0.573,1.523-1.393,1.574c-0.043,0.002-0.087,0.003-0.131,0.002c-1,0-1.366-0.631-1.735-1.261
			c-0.289-0.5-0.682-1.155-1.444-1.155c-0.646,0.006-1.166,0.534-1.16,1.181c0,0.026,0.002,0.054,0.004,0.08
			c0,1.13,1.024,1.577,1.866,1.943L29.867,12.5z"/>
		<path id="Path_11670" d="M39.143,8.642v7.538c0,0.868,0.026,2.312,1.761,2.419c0.421,0,1.101,0,1.101,0.812
			c0,0.843-1.577,1.474-3.101,1.474c-1.102,0.044-2.175-0.364-2.969-1.13c-0.679-0.802-1.001-1.847-0.893-2.892V8.642
			c-0.474,0-1.34,0-1.419-0.026c-0.263-0.026-0.289-0.211-0.289-0.446c0-1.184,0-1.184,0.289-1.236
			c0.053-0.026,0.945-0.026,1.419-0.026V5.543c-0.077-0.381,0.135-0.761,0.5-0.895l2.68-1.365c0.133-0.092,0.287-0.146,0.447-0.158
			c0.447,0,0.473,0.524,0.473,0.762v3.021h1.761c0.342,0,0.5,0.026,0.578,0.288v0.975c0,0.42-0.21,0.472-0.578,0.472H39.143z"/>
		<path id="Path_11671" d="M53.702,17.705c0.059,0.609-0.09,1.221-0.422,1.734c-0.446,0.601-1.944,1.445-4.781,1.445
			c-1.101,0-5.623-0.027-5.623-3.837c0-3.443,3.5-4.23,6.91-4.993v-1.363c0-0.812-0.026-1.942-1.263-1.942
			c-0.704,0.016-1.304,0.517-1.444,1.208c-0.289,0.734-0.578,1.5-1.786,1.5c-0.92,0.064-1.719-0.628-1.783-1.548
			c-0.003-0.044-0.004-0.088-0.004-0.132c0-1.471,1.734-3.231,5.728-3.231c1.045-0.053,2.085,0.164,3.021,0.631
			c1.046,0.735,1.602,1.987,1.446,3.257L53.702,17.705z M49.786,13.868c-1.444,0.448-2.891,0.895-2.891,2.813
			c0,1.445,0.894,2,1.655,2c1.209,0,1.235-1.025,1.235-1.63V13.868z"/>
		<path id="Path_11672" d="M65.47,12.449h-4.698v7.49c0,0.472-0.184,0.578-0.631,0.578h-3.258c-0.525,0-0.683-0.132-0.683-0.606
			V2.572c0-0.6,0.394-0.6,0.63-0.6h3.285c0.42,0,0.656,0.078,0.656,0.552v6.961h4.698V2.574c0-0.394,0.078-0.6,0.578-0.6h3.363
			c0.5,0,0.631,0.131,0.631,0.63v17.34c0,0.5-0.184,0.578-0.657,0.578H66.1c-0.525,0-0.63-0.159-0.63-0.658V12.449z"/>
		<path id="Path_11673" d="M75.431,13.974c0.069,0.491,0.211,0.97,0.42,1.419c0.55,1.121,1.695,1.826,2.943,1.812
			c1.011-0.016,1.975-0.431,2.68-1.155c0.525-0.578,0.684-0.737,1.051-0.737c0.421,0,0.814,0.343,0.814,1
			c-0.25,2.66-2.529,4.665-5.2,4.573c-4.649,0-6.227-3.68-6.227-7.28c0-5.198,3.285-7.09,6.147-7.09c4.2,0,5.229,3.889,5.229,5.173
			c0,1.129-0.657,1.235-1.077,1.313L75.431,13.974z M79.242,11.35c-0.185-2.339-1.551-2.366-1.866-2.366
			c-1.55,0-2.18,1.473-2.206,2.966L79.242,11.35z"/>
		<path id="Path_11674" d="M96.479,17.811c0.11,0.776-0.225,1.55-0.866,2c-1.435,0.747-3.034,1.117-4.65,1.077
			c-4.52,0-6.464-2.813-6.464-6.834c0-3.963,2.1-7.537,5.755-7.537c0.727-0.021,1.445,0.161,2.075,0.525V1.078
			c0-0.577,0.314-0.657,0.683-0.657h2.758c0.474,0.026,0.71,0.026,0.71,0.58V17.811z M92.329,9.063
			c-0.319-0.215-0.692-0.334-1.077-0.343c-1.76,0-2.548,2.312-2.548,4.781c0,2.47,0.788,4.756,2.5,4.756
			c1.1,0,1.13-0.975,1.13-1.552L92.329,9.063z"/>
		<path id="Path_11675" d="M108.804,9.249c0.333,0.679,0.512,1.423,0.525,2.179c0,3.204-2.812,4.544-5.2,4.544
			c-0.484,0-0.969-0.044-1.445-0.131c-0.236,0.275-0.391,0.612-0.446,0.971c0,0.737,0.762,0.762,2.443,0.842l1.97,0.101
			c1.314,0.08,4.913,0.314,4.913,3.574c0,1.84-1.787,5.6-8.145,5.6c-0.735,0-5.334,0-5.334-3.1c0-1.156,0.814-2.155,2.207-2.916
			c-0.967-0.259-1.643-1.129-1.655-2.13c0-1.312,1.288-2.549,2.443-3.416c-1.558-0.785-2.513-2.408-2.443-4.148
			c0-2.339,1.5-4.677,5.36-4.677c0.904-0.014,1.804,0.138,2.653,0.445c0.478,0.223,0.998,0.339,1.524,0.342
			c0.317-0.006,0.634-0.04,0.946-0.101c0.131-0.028,1.418-0.29,1.471-0.29c0.237,0,0.289,0.262,0.314,0.343
			c0.104,0.336,0.183,0.679,0.236,1.025c0,0.183-0.078,0.235-0.394,0.341L108.804,9.249z M101.449,22.7
			c0,0.842,0.813,1.734,3.047,1.734c1.708,0,3.284-0.682,3.284-1.734c0-0.919-1-1.023-1.682-1.1
			c-0.551-0.053-3.337-0.158-3.967-0.211C101.751,21.728,101.509,22.194,101.449,22.7z M103.788,8.702
			c-0.788,0-1.473,0.685-1.473,1.893c0,1.179,0.632,2.886,1.866,2.886c1,0,1.446-0.866,1.446-1.838c0-0.306-0.026-0.614-0.079-0.917
			c-0.186-0.923-0.737-2.03-1.762-2.03L103.788,8.702z"/>
		<path id="Path_11676" d="M115.402,13.974c0.068,0.491,0.21,0.97,0.42,1.419c0.549,1.121,1.694,1.826,2.942,1.812
			c1.012-0.016,1.976-0.431,2.682-1.155c0.524-0.578,0.683-0.737,1.05-0.737c0.421,0,0.813,0.343,0.813,1
			c-0.25,2.66-2.529,4.665-5.199,4.573c-4.65,0-6.228-3.68-6.228-7.28c0-5.198,3.284-7.09,6.148-7.09
			c4.199,0,5.229,3.889,5.229,5.173c0,1.129-0.657,1.235-1.077,1.313L115.402,13.974z M119.212,11.35
			c-0.184-2.339-1.55-2.366-1.866-2.366c-1.549,0-2.18,1.473-2.207,2.966L119.212,11.35z"/>
	</g>
	<g id="Group_828" transform="translate(110.213)" display="inline">
		<path id="Path_11677" fill="#F3A400" d="M2.971,1.445c0.075-0.259,0.231-0.486,0.446-0.648c0.709-0.413,1.567-0.48,2.332-0.182
			c0.655,0.461,1.122,1.145,1.312,1.924c1.124,0.437,2.196,0.993,3.2,1.66c1.127,0.889,2.183,1.864,3.158,2.916
			c0.346,0.237,0.736,0.401,1.148,0.482l-0.374,0.324L19.616,7.6l-0.538,0.321c0,0,1.744,0.149,0.5,0.366
			c-0.416,0.074-6.479,0.892-7.532,0.81l-1.053-0.079l-0.607,0.363L9.698,9.259c0,0,0.242,0.486-0.041,0.648s-1.256,0.77-1.256,0.77
			s-0.688,0.366-0.323,0.366s0.386-0.092,0.552-0.092s-0.008,0.112,0.08,0.106c0.677-0.048,0.64,0.512,0.64,0.512
			c-0.092-0.168-0.248-0.292-0.433-0.343c-0.26-0.03-0.041,0.199-0.228,0.208c-0.22,0.01-0.101-0.166-0.323-0.094
			c-0.242,0.069-0.501,0.048-0.729-0.062c-0.177-0.101-0.125,0.155-0.53,0.114c-0.406-0.041-0.458-0.114-0.594-0.062
			c-0.072,0.032-0.156,0.032-0.229,0c-0.113,0.009-0.219,0.057-0.3,0.136c-0.073,0.063-0.14,0.133-0.2,0.208
			c0.031-0.174,0.114-0.333,0.24-0.458c0.136-0.076,0.292-0.111,0.447-0.1c0,0,0.094-0.157,0.208-0.157
			c0.115,0,0.146,0.074,0.292,0.095c0.159,0.019,0.319-0.015,0.458-0.095c0.115-0.072,0.062-0.166,0.438-0.342
			c0.396-0.25,0.764-0.54,1.1-0.865c0,0,0.167-0.157-0.01-0.271c-0.177-0.114-4.59-1.771-5.079-4.381
			C3.756,4.628,3.743,4.134,3.837,3.655C3.667,3.434,3.52,3.197,3.4,2.947C3.299,2.675,3.138,2.312,3.138,2.312
			C2.932,2.294,2.728,2.254,2.531,2.19C2.325,2.112,2.125,2.02,1.93,1.915c0,0,0.274-0.168,0.514-0.285
			C2.614,1.553,2.791,1.49,2.971,1.445z"/>
	</g>
</g>
<g id="Layer_2">
	<g id="Group_823" transform="translate(0 5.005)" opacity="0.197">
		<path id="Path_11656" d="M-2.147,2.489c0.026-0.57,0.163-0.731,0.542-0.868c1.561-0.271,3.142-0.397,4.725-0.38
			c1.713,0,7.658,0,7.658,5.622c-0.035,2.294-1.499,4.332-3.666,5.085l4.562,7.68c0.131,0.166,0.215,0.363,0.244,0.57
			c0,0.354-0.301,0.461-0.601,0.436H7.76c-0.625,0-0.787-0.082-1.059-0.625l-3.287-6.6c-0.082-0.162-0.244-0.461-0.543-0.461
			c-0.408,0-0.408,0.408-0.408,0.57v6.436c-0.026,0.516-0.162,0.68-0.733,0.68h-3.226c-0.435,0-0.623-0.082-0.651-0.602V2.489z
			 M2.47,10.826c1,0.056,3.692,0.135,3.692-3.367c0-3.34-1.846-3.5-3.014-3.5c-0.136,0-0.354,0-0.678,0.027L2.47,10.826z"/>
		<path id="Path_11657" d="M16.05,13.871c0.072,0.508,0.219,1.002,0.435,1.467c0.567,1.158,1.751,1.889,3.042,1.873
			c1.046-0.018,2.043-0.449,2.77-1.199c0.543-0.602,0.705-0.76,1.086-0.76c0.435,0,0.842,0.354,0.842,1.031
			c-0.26,2.75-2.617,4.822-5.377,4.725c-4.807,0-6.436-3.799-6.436-7.521c0-5.379,3.395-7.334,6.354-7.334
			c4.345,0,5.4,4.018,5.4,5.358c0,1.162-0.68,1.271-1.113,1.352L16.05,13.871z M19.988,11.162c-0.19-2.425-1.6-2.454-1.928-2.454
			c-1.601,0-2.253,1.521-2.281,3.079L19.988,11.162z"/>
		<path id="Path_11658" d="M38.292,19.982c0,0.516-0.136,0.678-0.707,0.678h-3.014c-0.434,0-0.6-0.162-0.6-0.652v-9.29
			c0-0.869,0-1.301-0.407-1.738c-0.388-0.324-0.88-0.497-1.386-0.488c-1.738,0-1.764,1.411-1.764,2.227v9.344
			c0,0.516-0.246,0.572-0.707,0.6H26.7c-0.488,0-0.6-0.189-0.625-0.678V9.143c0-0.978,0-1.873,2.635-2.525
			c1.209-0.287,2.449-0.433,3.692-0.434c2.987,0,3.992,0.624,4.347,0.869c1.059,0.617,1.663,1.794,1.547,3.015L38.292,19.982z"/>
		<path id="Path_11659" d="M45.327,8.356v7.796c0,0.9,0.027,2.389,1.82,2.5c0.434,0,1.141,0,1.141,0.84
			c0,0.871-1.629,1.521-3.199,1.521c-1.14,0.047-2.248-0.375-3.069-1.166c-0.702-0.83-1.036-1.908-0.923-2.988V8.356
			c-0.489,0-1.385,0-1.467-0.027c-0.271-0.026-0.301-0.217-0.301-0.462c0-1.222,0-1.222,0.301-1.275
			c0.055-0.028,0.978-0.028,1.467-0.028v-1.41c-0.08-0.393,0.14-0.785,0.516-0.923l2.77-1.413c0.138-0.093,0.297-0.149,0.461-0.162
			c0.464,0,0.49,0.543,0.49,0.788v3.122h1.819c0.353,0,0.517,0.028,0.601,0.3v1c0,0.436-0.217,0.489-0.601,0.489L45.327,8.356z"/>
		<path id="Path_11660" d="M60.376,17.728c0.061,0.629-0.093,1.26-0.436,1.791c-0.462,0.625-2.009,1.494-4.941,1.494
			c-1.142,0-5.812-0.027-5.812-3.965c0-3.557,3.611-4.371,7.143-5.154v-1.42c0-0.843-0.029-2.011-1.301-2.011
			C54.3,8.481,53.68,8.999,53.536,9.712c-0.301,0.762-0.601,1.557-1.847,1.557c-0.952,0.066-1.776-0.66-1.843-1.612
			c-0.003-0.044-0.004-0.089-0.004-0.134c0-1.522,1.793-3.34,5.92-3.34c1.079-0.055,2.154,0.17,3.122,0.651
			c1.081,0.762,1.655,2.056,1.493,3.367L60.376,17.728z M56.329,13.763c-1.494,0.461-2.988,0.922-2.988,2.898
			c0,1.494,0.924,2.066,1.712,2.066c1.249,0,1.276-1.061,1.276-1.686V13.763z"/>
		<path id="Path_11661" d="M72.538,12.297h-4.86v7.74c0,0.488-0.19,0.6-0.652,0.6h-3.364c-0.541,0-0.705-0.135-0.705-0.625V2.082
			c0-0.624,0.408-0.624,0.651-0.624h3.396c0.434,0,0.679,0.082,0.679,0.57v7.2h4.86V2.082c0-0.406,0.082-0.624,0.601-0.624h3.476
			c0.517,0,0.652,0.136,0.652,0.651v17.925c0,0.518-0.189,0.602-0.679,0.602h-3.394c-0.543,0-0.652-0.164-0.652-0.68L72.538,12.297z
			"/>
		<path id="Path_11662" d="M82.833,13.871c0.072,0.508,0.218,1.002,0.435,1.467c0.567,1.158,1.751,1.887,3.04,1.873
			c1.046-0.018,2.043-0.449,2.77-1.199c0.543-0.602,0.705-0.76,1.086-0.76c0.435,0,0.842,0.354,0.842,1.031
			c-0.26,2.75-2.617,4.822-5.377,4.725c-4.807,0-6.437-3.799-6.437-7.521c0-5.379,3.396-7.334,6.354-7.334
			c4.345,0,5.4,4.018,5.4,5.358c0,1.162-0.68,1.271-1.115,1.352L82.833,13.871z M86.77,11.162c-0.189-2.425-1.6-2.454-1.928-2.454
			c-1.6,0-2.253,1.521-2.28,3.079L86.77,11.162z"/>
		<path id="Path_11663" d="M104.587,17.836c0.111,0.803-0.236,1.6-0.9,2.064c-1.482,0.771-3.137,1.156-4.807,1.113
			c-4.67,0-6.68-2.906-6.68-7.061c0-4.103,2.172-7.797,5.946-7.797c0.751-0.021,1.494,0.166,2.146,0.542V0.533
			c0-0.6,0.326-0.678,0.707-0.678h2.85c0.488,0.027,0.734,0.027,0.734,0.6L104.587,17.836z M100.296,8.789
			c-0.33-0.222-0.717-0.344-1.113-0.353c-1.818,0-2.634,2.389-2.634,4.944c0,2.553,0.815,4.914,2.579,4.914
			c1.141,0,1.168-1,1.168-1.6V8.789z"/>
		<path id="Path_11664" d="M117.325,8.981c0.344,0.702,0.528,1.472,0.543,2.261c0,3.307-2.9,4.695-5.377,4.695
			c-0.502,0-1.001-0.047-1.494-0.137c-0.243,0.285-0.402,0.631-0.461,1c0,0.762,0.787,0.787,2.524,0.869l2.036,0.107
			c1.357,0.082,5.079,0.326,5.079,3.695c0,1.898-1.847,5.783-8.418,5.783c-0.761,0-5.513,0-5.513-3.199
			c0-1.195,0.842-2.229,2.279-3.016c-1-0.266-1.7-1.166-1.711-2.201c0-1.357,1.331-2.635,2.526-3.529
			c-1.61-0.812-2.599-2.49-2.526-4.291c0-2.421,1.549-4.837,5.54-4.837c0.935-0.014,1.864,0.143,2.743,0.462
			c0.494,0.229,1.031,0.35,1.576,0.353c0.328-0.008,0.656-0.044,0.978-0.108c0.136-0.026,1.466-0.301,1.521-0.301
			c0.244,0,0.3,0.271,0.326,0.353c0.106,0.347,0.188,0.7,0.244,1.059c0,0.191-0.082,0.245-0.408,0.354L117.325,8.981z
			 M109.725,22.882c0,0.869,0.842,1.795,3.15,1.795c1.765,0,3.394-0.707,3.394-1.795c0-0.949-1.03-1.059-1.737-1.139
			c-0.57-0.055-3.449-0.164-4.101-0.217c-0.396,0.35-0.649,0.834-0.711,1.359L109.725,22.882z M112.142,8.407
			c-0.815,0-1.521,0.705-1.521,1.955c0,1.231,0.651,2.991,1.928,2.991c1.031,0,1.494-0.9,1.494-1.895
			c0-0.32-0.027-0.645-0.082-0.959c-0.194-0.947-0.764-2.09-1.822-2.09L112.142,8.407z"/>
		<path id="Path_11665" d="M124.143,13.871c0.071,0.508,0.218,1.002,0.434,1.467c0.568,1.158,1.752,1.887,3.043,1.873
			c1.045-0.018,2.042-0.449,2.77-1.199c0.542-0.602,0.705-0.76,1.086-0.76c0.434,0,0.841,0.354,0.841,1.031
			c-0.259,2.75-2.616,4.822-5.377,4.725c-4.806,0-6.436-3.799-6.436-7.521c0-5.379,3.395-7.334,6.354-7.334
			c4.347,0,5.4,4.018,5.4,5.358c0,1.162-0.679,1.271-1.113,1.352L124.143,13.871z M128.081,11.162
			c-0.19-2.425-1.6-2.454-1.928-2.454c-1.6,0-2.253,1.521-2.281,3.079L128.081,11.162z"/>
	</g>
	<g id="Group_824" transform="translate(81.242)">
		<path id="Path_11666" fill="#70A116" d="M0.071,7.855C-0.316,8.001-0.75,7.964-1.107,7.754c-0.334-0.199-0.591-0.481-0.806-0.536
			c-0.197-0.079-0.292-0.303-0.212-0.5c0.013-0.032,0.03-0.062,0.052-0.09c0.248-0.335,0.464-0.694,0.644-1.071
			c0.237-0.418,0.645-0.712,1.116-0.806c0.322,0,0.277-0.15,0.277-0.15c-0.148-0.232-0.148-0.528,0-0.761
			c0.152-0.177,0.279-0.375,0.375-0.589c0.209,0.179,0.342,0.429,0.375,0.7c0,0.219,0.033,0.437,0.101,0.645
			c0,0,0.233,0.268,0.126-0.055C0.833,4.22,1.208,3.47,1.208,3.47s0.857,0.966,0.644,1.341S1.69,5.186,1.69,5.186
			c0.207,0.335,0.477,0.626,0.795,0.857C3.259,6.3,4.1,6.262,4.847,5.936c1.196-0.564,2.59-0.524,3.752,0.107
			c0.707,0.482,1.309,1.103,1.77,1.823c0,0,0.375,0.108,0.215-0.481c-0.162-0.591-1.396-2.557-1.18-4.7
			c0.11-1.375,1.115-2.512,2.467-2.789c0.68-0.101,3.17-0.101,2.799,1.833c-0.283,1.469-2.199,0.455-1.364,2.457
			c1.179,2.842,1.2,3.646,0.991,5.366c-0.088,1.596-1.453,2.817-3.049,2.729c-0.168-0.009-0.335-0.033-0.498-0.071
			c-1.072-0.32-1.771-1.018-1.771-0.699c0,0.317-0.315,1.479-0.733,1.238c-0.752-0.541-1.618-0.902-2.531-1.057
			c-0.645,0-1.473-0.4-0.565-0.639c0.534-0.109,1.089-0.067,1.601,0.122c0,0,0.14-0.31-0.289-0.523
			c-0.428-0.214-0.912-0.107-1.607-0.43C4.156,9.9,3.726,9.579,3.671,9.902c-0.088,0.781-0.348,1.534-0.758,2.206
			c-0.305,0.331-0.755,0.488-1.199,0.42c-0.644,0-0.42-0.528-0.205-0.688c0.215-0.159-0.438,0.266-0.655,0.142
			c-0.218-0.124-0.2-0.573,0.394-0.706c0.424-0.212,0.705-0.633,0.737-1.106c0.147-0.553-0.171-1.122-0.72-1.284
			C0.757,8.695,0.333,8.329,0.071,7.855z"/>
	</g>
</g>
<g id="Layer_3" display="none">
	<g id="Group_830" display="inline" opacity="0.202">
		<path id="Path_11678" d="M-4.418,7.612c0.026-0.57,0.163-0.734,0.544-0.869c1.562-0.271,3.146-0.398,4.731-0.381
			c1.715,0,7.669,0,7.669,5.627c-0.034,2.297-1.501,4.327-3.672,5.077l4.569,7.701c0.132,0.166,0.217,0.363,0.245,0.572
			c0,0.354-0.3,0.463-0.601,0.434H5.507c-0.625,0-0.788-0.08-1.06-0.625l-3.29-6.607c-0.082-0.162-0.245-0.463-0.544-0.463
			c-0.407,0-0.407,0.406-0.407,0.572v6.443c-0.027,0.518-0.164,0.68-0.735,0.68h-3.236c-0.435,0-0.625-0.082-0.651-0.6L-4.418,7.612
			z M0.205,15.958c1.006,0.054,3.7,0.136,3.7-3.371c0-3.344-1.85-3.508-3.019-3.508c-0.136,0-0.354,0-0.679,0.029L0.205,15.958z"/>
		<path id="Path_11679" d="M13.803,19c0.071,0.508,0.219,1.002,0.436,1.469c0.568,1.16,1.754,1.889,3.046,1.875
			c1.047-0.018,2.044-0.449,2.773-1.201c0.543-0.6,0.707-0.762,1.088-0.762c0.436,0,0.844,0.355,0.844,1.035
			c-0.261,2.752-2.621,4.826-5.386,4.73c-4.812,0-6.443-3.807-6.443-7.533c0-5.378,3.399-7.335,6.363-7.335
			c4.352,0,5.411,4.023,5.411,5.353c0,1.168-0.68,1.275-1.114,1.357L13.803,19z M17.747,16.285
			c-0.191-2.419-1.601-2.446-1.932-2.446c-1.6,0-2.257,1.521-2.283,3.065L17.747,16.285z"/>
		<path id="Path_11680" d="M36.077,25.117c0,0.518-0.137,0.682-0.707,0.682h-3.02c-0.435,0-0.6-0.164-0.6-0.654V15.85
			c0-0.869,0-1.301-0.407-1.738c-0.389-0.324-0.882-0.498-1.388-0.49c-1.74,0-1.768,1.414-1.768,2.229v9.349
			c0,0.52-0.245,0.57-0.708,0.602h-3.018c-0.49,0-0.601-0.191-0.625-0.682V14.272c0-0.979,0-1.875,2.637-2.529
			c1.213-0.287,2.454-0.434,3.7-0.436c2.992,0,4,0.627,4.352,0.871c1.061,0.617,1.665,1.795,1.551,3.018V25.117z"/>
		<path id="Path_11681" d="M43.122,13.485v7.794c0,0.9,0.026,2.393,1.823,2.5c0.435,0,1.142,0,1.142,0.844
			c0,0.869-1.632,1.521-3.209,1.521c-1.142,0.047-2.253-0.377-3.074-1.17c-0.702-0.83-1.036-1.91-0.924-2.99v-8.505
			c-0.489,0-1.387,0-1.468-0.027c-0.272-0.029-0.3-0.219-0.3-0.463c0-1.225,0-1.225,0.3-1.279c0.054-0.025,0.979-0.025,1.468-0.025
			V10.27c-0.079-0.395,0.141-0.787,0.517-0.926l2.773-1.412c0.137-0.094,0.296-0.15,0.462-0.162c0.463,0,0.489,0.543,0.489,0.787
			v3.127h1.822c0.354,0,0.518,0.025,0.601,0.299v1.016c0,0.434-0.218,0.488-0.601,0.488L43.122,13.485z"/>
		<path id="Path_11682" d="M58.192,22.859c0.062,0.631-0.092,1.264-0.435,1.795c-0.462,0.625-2.012,1.5-4.949,1.5
			c-1.142,0-5.818-0.025-5.818-3.969c0-3.564,3.616-4.379,7.151-5.17V15.61c0-0.844-0.026-2.014-1.305-2.014
			c-0.731,0.016-1.354,0.535-1.5,1.252c-0.3,0.762-0.601,1.55-1.849,1.55c-0.953,0.065-1.779-0.651-1.847-1.604
			c-0.003-0.045-0.004-0.09-0.004-0.135c0-1.523,1.795-3.346,5.929-3.346c1.081-0.055,2.158,0.17,3.127,0.652
			c1.084,0.762,1.661,2.057,1.5,3.371L58.192,22.859z M54.14,18.89c-1.5,0.463-2.991,0.924-2.991,2.91
			c0,1.5,0.925,2.064,1.714,2.064c1.251,0,1.277-1.059,1.277-1.684V18.89z"/>
		<path id="Path_11683" d="M74.752,13.757l-4.46,11.524c-0.19,0.488-0.326,0.572-0.706,0.572c-0.463,0-0.68-0.029-0.925-0.6
			l-4.4-11.495v11.308c0,0.6-0.218,0.705-0.708,0.705h-2.094c-0.543,0-0.679-0.191-0.679-0.654V7.208
			c0-0.381,0.108-0.625,0.625-0.625h3.426c0.6,0,0.708,0.109,0.925,0.652l4.215,10.651l4.188-10.679
			c0.189-0.516,0.325-0.625,0.843-0.625h3.426c0.407,0,0.653,0.055,0.653,0.602V25.15c0,0.545-0.218,0.625-0.734,0.625h-2.91
			c-0.57,0-0.68-0.217-0.68-0.678L74.752,13.757z"/>
		<path id="Path_11684" d="M92.186,22.859c0.062,0.631-0.092,1.264-0.436,1.795c-0.462,0.625-2.012,1.5-4.948,1.5
			c-1.142,0-5.82-0.025-5.82-3.969c0-3.564,3.617-4.379,7.152-5.17V15.61c0-0.844-0.027-2.014-1.305-2.014
			c-0.731,0.016-1.354,0.535-1.5,1.252c-0.3,0.762-0.601,1.55-1.85,1.55c-0.953,0.065-1.779-0.653-1.846-1.606
			c-0.003-0.043-0.004-0.088-0.004-0.133c0-1.523,1.8-3.346,5.929-3.346c1.081-0.055,2.158,0.17,3.127,0.652
			c1.084,0.762,1.661,2.057,1.5,3.371V22.859z M88.135,18.89c-1.5,0.463-2.991,0.924-2.991,2.91c0,1.5,0.925,2.064,1.713,2.064
			c1.251,0,1.278-1.059,1.278-1.684V18.89z"/>
		<path id="Path_11685" d="M99.068,23.404h4.08c0.436,0,0.601,0.082,0.601,0.545v1.301c0,0.463-0.191,0.516-0.601,0.516h-8.864
			c-0.164,0-0.518,0-0.518-0.379c0-0.109,0-0.164,0.164-0.572l4.677-10.788h-3.779c-0.408,0-0.543-0.109-0.543-0.518v-1.414
			c0.081-0.381,0.3-0.408,0.543-0.408h8.321c0.189,0,0.625,0,0.625,0.436c-0.018,0.189-0.073,0.375-0.163,0.543L99.068,23.404z"/>
		<path id="Path_11686" d="M108.453,19c0.071,0.508,0.218,1.002,0.435,1.469c0.569,1.16,1.754,1.889,3.046,1.875
			c1.047-0.018,2.045-0.449,2.774-1.201c0.543-0.6,0.707-0.762,1.088-0.762c0.435,0,0.843,0.355,0.843,1.035
			c-0.26,2.752-2.62,4.826-5.384,4.73c-4.813,0-6.444-3.807-6.444-7.533c0-5.378,3.4-7.335,6.363-7.335
			c4.352,0,5.412,4.023,5.412,5.353c0,1.168-0.68,1.275-1.115,1.357L108.453,19z M112.395,16.285c-0.19-2.419-1.6-2.446-1.931-2.446
			c-1.6,0-2.256,1.521-2.284,3.065L112.395,16.285z"/>
	</g>
	<g id="Group_831" transform="translate(124.066 1.454)" display="inline">
		<path id="Path_11687" fill="#E85200" d="M6.821,15.981c-1.453-2.169-5.182-1.884-5.678-1.993c-0.496-0.111-0.494-0.885-0.88-1.217
			c-0.387-0.332,0.056-0.607,1-1.818c0.943-1.211,1.72-3.582,0.839-3.918c-0.881-0.334-2.437,3.139-2.601,3.746
			c-0.163,0.607-0.333,0.332-0.333,0.332s0.512-4.799-0.427-4.748c-0.938,0.053-0.621,4.854-0.899,5.301
			c-0.353,0.404-0.763,0.756-1.217,1.043c-0.388,0.332-0.113,1.049-0.335,1.27c-0.204,0.23-0.373,0.49-0.5,0.771
			c-0.11,0.22-0.332,0.384-0.112,0.711c0.184,0.221,0.436,0.379,0.717,0.445c0.238,0.174,0.533,0.252,0.827,0.223
			c0.445-0.012,0.89-0.064,1.325-0.162c-0.081,0.475-0.138,0.955-0.171,1.436c-0.057,0.826,0.714,1.768,0.878,2.32
			c-0.003,1.693-0.805,3.289-2.164,4.299c0,0-0.276,0.055-0.773,0.109c-0.497,0.053-0.057,0.883-0.057,0.883
			c0.567,0.061,1.139,0.082,1.71,0.059c0.663-0.053,0.664-0.328,0.664-0.328c0.24,0,0.479-0.02,0.718-0.053
			c0.331-0.055,0.554-0.883,0.94-1.488c0.388-0.605,1.773-2.424,1.773-2.424s0.164,0.939,1.982,2.047c0.421,0.258,0,0.773-0.5,0.771
			C2.7,23.472,1.835,23.524,1.01,23.755c-1.101,0.383-0.5,1.158-0.5,1.158s4.8,0.068,5.794,0.016c0.994-0.051,0.72-0.771,0.72-0.771
			s0.715,0.775,2.264-0.434c0.973-0.822,1.101-2.275,0.285-3.256c-0.22-0.111-0.885,0.77-0.885,0.77
			C8.021,21.339,9.07,19.354,6.821,15.981z"/>
	</g>
</g>
</svg>
